<svg enable-background="new 0 0 24 24" height="512" viewBox="0 0 24 24" width="512" xmlns="http://www.w3.org/2000/svg"><path d="m13.5 18.75c0-1.35.827-2.509 2-3v-.25c0-.608.147-1.178.391-1.695-.756-.508-1.664-.805-2.641-.805h-8.5c-2.619 0-4.75 2.131-4.75 4.75v3.5c0 .414.336.75.75.75h12.75z" fill="#607d8b"/><path d="m9 1c-2.757 0-5 2.243-5 5s2.243 5 5 5 5-2.243 5-5-2.243-5-5-5z" fill="#607d8b"/><path d="m9 13h-4.25c-2.619 0-4.75 2.131-4.75 4.75v3.5c0 .414.336.75.75.75h8.25z" fill="#546d79"/><path d="m9 1c-2.757 0-5 2.243-5 5s2.243 5 5 5z" fill="#546d79"/><path d="m22.25 17h-.25-1.5-2-1.5-.25c-.965 0-1.75.785-1.75 1.75v3.5c0 .965.785 1.75 1.75 1.75h5.5c.965 0 1.75-.785 1.75-1.75v-3.5c0-.965-.785-1.75-1.75-1.75z" fill="#ffc107"/><path d="m19.5 13c-1.379 0-2.5 1.122-2.5 2.5v1.5h1.5v-1.5c0-.551.448-1 1-1s1 .449 1 1v1.5h1.5v-1.5c0-1.378-1.121-2.5-2.5-2.5z" fill="#607d8b"/><path d="m19.5 17h-1-1.5-.25c-.965 0-1.75.785-1.75 1.75v3.5c0 .965.785 1.75 1.75 1.75h2.75z" fill="#dea806"/><path d="m19.5 13c-1.379 0-2.5 1.122-2.5 2.5v1.5h1.5v-1.5c0-.551.448-1 1-1z" fill="#546d79"/></svg>