<?xml version="1.0"?>
<svg xmlns="http://www.w3.org/2000/svg" xmlns:xlink="http://www.w3.org/1999/xlink" xmlns:svgjs="http://svgjs.com/svgjs" version="1.1" width="512" height="512" x="0" y="0" viewBox="0 0 496.471 496.471" style="enable-background:new 0 0 512 512" xml:space="preserve" class=""><g><path xmlns="http://www.w3.org/2000/svg" d="m248.236 0c-137.097 0-248.236 111.139-248.236 248.236 0 65.027 25.015 124.203 65.932 168.46l-28.118 66.667c-2.625 6.223 1.944 13.109 8.698 13.109h201.724c137.097 0 248.236-111.139 248.236-248.236s-111.14-248.236-248.236-248.236z" fill="#97da7b" data-original="#97da7b" style="" class=""/><path xmlns="http://www.w3.org/2000/svg" d="m135.939 483.363 14.216-33.705c8.06-19.111 5.64-41.021-6.365-57.935-28.755-40.514-45.665-90.023-45.665-143.487 0-120.3 85.577-220.602 199.173-243.377-16.492-3.307-33.571-4.989-51.069-4.85-137.291 1.091-248.185 114.601-246.203 251.882.918 63.588 25.757 121.378 65.906 164.805l-28.118 66.667c-2.625 6.223 1.944 13.109 8.698 13.109h98.125c-6.754-.001-11.323-6.886-8.698-13.109z" fill="#80d261" data-original="#80d261" style="" class=""/><g xmlns="http://www.w3.org/2000/svg"><path d="m423.567 207.587v-35.28c0-2.32-1.881-4.201-4.201-4.201h-35.827c-3.092 0-5.124-3.227-3.789-6.016l16.935-35.352c1.336-2.788-.697-6.016-3.789-6.016h-39.12c-1.617 0-3.09.928-3.789 2.386l-20.413 42.612c-.698 1.458-2.172 2.386-3.789 2.386h-74.696c-3.092 0-5.124-3.227-3.789-6.016l16.935-35.352c1.336-2.788-.697-6.016-3.789-6.016h-39.12c-1.617 0-3.09.928-3.789 2.386l-20.413 42.612c-.698 1.458-2.172 2.386-3.789 2.386h-81.492c-2.32 0-4.201 1.881-4.201 4.201v35.28c0 2.32 1.881 4.201 4.201 4.201h56.542c3.092 0 5.124 3.227 3.789 6.016l-30.508 63.685c-.699 1.458-2.172 2.386-3.789 2.386h-60.906c-2.32 0-4.201 1.881-4.201 4.201v35.28c0 2.32 1.881 4.201 4.201 4.201h35.962c3.092 0 5.124 3.227 3.789 6.016l-18.638 38.906c-1.336 2.788.697 6.016 3.789 6.016h39.12c1.617 0 3.09-.928 3.789-2.386l22.116-46.166c.698-1.458 2.172-2.386 3.789-2.386h74.696c3.092 0 5.124 3.227 3.789 6.016l-18.638 38.906c-1.336 2.788.697 6.016 3.789 6.016h39.12c1.617 0 3.09-.928 3.789-2.386l22.116-46.166c.698-1.458 2.172-2.386 3.789-2.386h81.357c2.32 0 4.201-1.881 4.201-4.201v-35.28c0-2.32-1.881-4.201-4.201-4.201h-56.406c-3.092 0-5.124-3.227-3.789-6.016l30.508-63.685c.698-1.458 2.172-2.386 3.789-2.386h60.777c2.313 0 4.194-1.881 4.194-4.201zm-153.238 76.287h-74.696c-3.092 0-5.124-3.227-3.789-6.016l30.508-63.685c.698-1.458 2.172-2.386 3.789-2.386h74.696c3.092 0 5.124 3.227 3.789 6.016l-30.508 63.685c-.698 1.458-2.172 2.386-3.789 2.386z" fill="#ffffff" data-original="#c1e9af" style="" class=""/></g></g></svg>
