<?xml version="1.0"?>
<svg xmlns="http://www.w3.org/2000/svg" xmlns:xlink="http://www.w3.org/1999/xlink" xmlns:svgjs="http://svgjs.com/svgjs" version="1.1" width="512" height="512" x="0" y="0" viewBox="0 0 512 512" style="enable-background:new 0 0 512 512" xml:space="preserve" class=""><g><path xmlns="http://www.w3.org/2000/svg" d="m320 320h144v168h-144z" fill="#707172" data-original="#dadcde" style="" class=""/><path xmlns="http://www.w3.org/2000/svg" d="m168 296c16-8 32-24 0-64s16-72 16-72 16 32 48 64 32 16 56 64c17.889 35.777 48 32 48 32v168h-168z" fill="#f0c6a4" data-original="#f0c6a4" style="" class=""/><path xmlns="http://www.w3.org/2000/svg" d="m205.423 376.656a126.2 126.2 0 0 1 -14.415-.718 8 8 0 0 1 1.974-15.877 140.475 140.475 0 0 0 34.235-1.034c24.286-3.719 42.635-13.148 54.536-28.025a8 8 0 1 1 12.494 10c-14.366 17.957-36.863 29.684-65.06 33.914a161.586 161.586 0 0 1 -23.764 1.74z" fill="#e6bd9c" data-original="#e6bd9c" style="" class=""/><g xmlns="http://www.w3.org/2000/svg" fill="#f7cca9"><path d="m168 296h-96a24 24 0 0 0 0 48h96a24 24 0 0 0 0-48z" fill="#f7cca9" data-original="#f7cca9" style="" class=""/><path d="m168 344h-96a24 24 0 0 0 0 48h96a24 24 0 0 0 0-48z" fill="#f7cca9" data-original="#f7cca9" style="" class=""/><path d="m168 392h-96a24 24 0 0 0 0 48h96a24 24 0 0 0 0-48z" fill="#f7cca9" data-original="#f7cca9" style="" class=""/><path d="m168 440h-80a24 24 0 0 0 0 48h80a24 24 0 0 0 0-48z" fill="#f7cca9" data-original="#f7cca9" style="" class=""/></g><path xmlns="http://www.w3.org/2000/svg" d="m336 320h64v168h-64z" fill="#b8b9b9" data-original="#e9eef2" style="" class=""/><circle xmlns="http://www.w3.org/2000/svg" cx="368" cy="352" fill="#707172" r="8" data-original="#dadcde" style="" class=""/><path xmlns="http://www.w3.org/2000/svg" d="m238.628 32.919a33.17 33.17 0 0 0 -45.261 0l-9.367 8.919-9.369-8.919a33.17 33.17 0 0 0 -45.261 0 29.451 29.451 0 0 0 0 43.081l54.63 52 54.631-52a29.451 29.451 0 0 0 -.003-43.081z" fill="#eb423f" data-original="#eb423f" style=""/><path xmlns="http://www.w3.org/2000/svg" d="m176 352h-104a8 8 0 0 1 0-16h104a8 8 0 0 1 0 16z" fill="#f0c6a4" data-original="#f0c6a4" style="" class=""/><path xmlns="http://www.w3.org/2000/svg" d="m176 400h-104a8 8 0 0 1 0-16h104a8 8 0 0 1 0 16z" fill="#f0c6a4" data-original="#f0c6a4" style="" class=""/><path xmlns="http://www.w3.org/2000/svg" d="m168 448h-80a8 8 0 0 1 0-16h80a8 8 0 0 1 0 16z" fill="#f0c6a4" data-original="#f0c6a4" style="" class=""/></g></svg>
